<svg xmlns="http://www.w3.org/2000/svg" viewBox="0 0 306.35 55.77"><defs><style>.cls-1{fill:#b27b00;}.cls-2{fill:#333;}</style></defs><g id="レイヤー_2" data-name="レイヤー 2"><g id="レイヤー_1-2" data-name="レイヤー 1"><path class="cls-1" d="M32,1.59,53,53.46h4.91c.79,0,1.37.43,1.37,1.15a1.21,1.21,0,0,1-1.37,1.16H27.34A1.21,1.21,0,0,1,26,54.61c0-.72.58-1.15,1.37-1.15h7.58l-3.25-8.37H12.55L9.16,53.46h6.78c.8,0,1.37.43,1.37,1.15s-.57,1.16-1.37,1.16H1.37A1.21,1.21,0,0,1,0,54.61c0-.72.58-1.15,1.37-1.15H6.28l21-51.87A2.39,2.39,0,0,1,29.65,0,2.49,2.49,0,0,1,32,1.59ZM13.49,42.78H30.81L22.29,21ZM23.81,17.46l14.07,36H50.07L29.58,3,23.74,17.39Z"/><path class="cls-2" d="M66.15,21.92H62a.75.75,0,1,1,0-1.48H81.59c8.34,0,11.43,3.18,11.43,8.48a8.72,8.72,0,0,1-6.45,8.16c4.56.6,7.56,3.69,7.56,8.3,0,6-3.5,9.64-11.06,9.64H62a.75.75,0,1,1,0-1.48h4.2ZM68,53.54h7.38V21.92H68ZM79.66,37.41c0-.6.46-.83,1-.83h2.86c3.5,0,7.65-3.41,7.65-7.7s-2-7-9.64-7H77.21V53.54h5.86c6.77,0,9.22-3.27,9.22-8.25,0-5.26-4-7-7.79-7H80.58A.83.83,0,0,1,79.66,37.41Z"/><path class="cls-2" d="M132.53,37.64c0,10.92-7.7,18.07-16.55,18.07-9.13,0-17.43-5.9-17.43-18.07,0-11.57,8.39-18.07,17.43-18.07S132.53,26.71,132.53,37.64ZM111.92,53.86c-1.93-2.07-2.76-6.68-2.76-16.22s.92-14.2,3-16.28c-5.86,1.62-11.8,7-11.8,16.28C100.4,47.32,106.16,52.29,111.92,53.86Zm18.76-16.22c0-9.73-6.45-16.6-14.38-16.6-3.46,0-5.21,3-5.21,16.6,0,14.38,1.75,16.59,5.21,16.59C124.23,54.23,130.68,47.36,130.68,37.64Z"/><path class="cls-2" d="M167.42,21.92V43.35c0,7.1-3.5,12.36-12.12,12.36-9.5,0-15.08-3.65-15.08-12.91V21.92h-4c-.5,0-.87-.23-.87-.74a.77.77,0,0,1,.87-.74h19.27c.51,0,.88.28.88.74s-.37.74-.88.74h-4.19v21c0,7.1,1.89,11.16,6.54,11.16,4.2,0,7.75-4.11,7.75-10.56V21.92h-4.2c-.5,0-.87-.23-.87-.74a.77.77,0,0,1,.87-.74h10.05c.51,0,.88.28.88.74s-.37.74-.88.74Zm-18,0h-7.37v20.7c0,8.2,4.28,11.15,11.71,11.75-2.77-1.57-4.34-5.53-4.34-11.2Z"/><path class="cls-2" d="M207.39,21.32v7.37a.83.83,0,1,1-1.66,0V21.92h-8.95V53.54H201c.51,0,.87.28.87.74s-.36.74-.87.74H181.53c-.51,0-.88-.28-.88-.74s.37-.74.88-.74h4.19V21.92h-8.94v6.77a.83.83,0,1,1-1.66,0V21.32a.83.83,0,0,1,.87-.88h30.52A.83.83,0,0,1,207.39,21.32ZM187.56,53.54h7.38V21.92h-7.38Z"/><path class="cls-2" d="M259.89,54.28a.77.77,0,0,1,.87-.74h4.15V25.14L249.75,54.55a.75.75,0,0,1-.65.47.77.77,0,0,1-.74-.42l-15.85-29V53.54h4.28c.51,0,.88.28.88.74s-.37.74-.88.74H226.47c-.51,0-.88-.28-.88-.74s.37-.74.88-.74h4.19V21.92h-4.19c-.51,0-.88-.28-.88-.74s.37-.74.88-.74h14.29c.64,0,1,.14,1.2.6L253.9,42.85l11.2-21.76a1,1,0,0,1,.92-.65H271c.51,0,.88.28.88.74s-.37.74-.88.74h-4.19V53.54H271c.51,0,.88.28.88.74s-.37.74-.88.74H260.76A.77.77,0,0,1,259.89,54.28ZM232.51,22.1l16.55,30.1,3.87-7.51L240.48,21.92h-8Z"/><path class="cls-2" d="M291.65,41.65V53.54h13V46.9a.88.88,0,1,1,1.75,0v7.24a.8.8,0,0,1-.87.88H276.39c-.51,0-.88-.28-.88-.74s.37-.74.88-.74h4.19V21.92h-4.19c-.51,0-.88-.28-.88-.74s.37-.74.88-.74h28.86a.8.8,0,0,1,.87.88v6.77a.88.88,0,1,1-1.75,0V21.92H291.65V40.08h8.89a.79.79,0,1,1,0,1.57Zm-9.22,11.89h7.37V21.92h-7.37Z"/></g></g></svg>