<svg xmlns="http://www.w3.org/2000/svg" viewBox="0 0 203.67 51.03"><defs><style>.cls-1{fill:#b27b00;}.cls-2{fill:#333;}</style></defs><g id="レイヤー_2" data-name="レイヤー 2"><g id="レイヤー_1-2" data-name="レイヤー 1"><path class="cls-1" d="M2.34,36.86C2.34,44.07,9,49,16.32,49c6.69,0,8.84-4.87,8.84-9.23,0-3.9-2.8-6.37-7.22-7.86l-6.3-2.15C5.2,27.56,1.1,23.4,1.1,16.71,1.1,6.7,10.47,0,21.71,0c5,0,9.17,1.88,11.31,4.42V2a1.17,1.17,0,0,1,2.34,0V14A1.17,1.17,0,1,1,33,14V8.64c0-1.88-3.77-6.56-10.85-6.56-4.36,0-8.45,2.14-8.45,8.25,0,3.19,2.27,5.14,7,6.77L28,19.63C34,21.71,38.29,26,38.29,33.15,38.29,45.76,26.2,51,16.77,51,11.05,51,5.2,49,2.34,44.2V49a1.11,1.11,0,0,1-1.17,1.23A1.11,1.11,0,0,1,0,49V34.13a1.11,1.11,0,0,1,1.17-1.24,1.11,1.11,0,0,1,1.17,1.24ZM24.18,48.1c6.24-2.14,11.51-7,11.51-14.43,0-6.3-3.12-9.88-9-12l-7.34-2.6c-5.14-1.82-8.19-4.42-8.19-8.65a9.36,9.36,0,0,1,3.44-7.6C7.87,5.13,3.71,10.53,3.71,16.51,3.71,22,7,25.74,12.94,27.76l6.37,2.14c4.94,1.69,8.45,4.88,8.45,9.62C27.76,42.84,26.72,46,24.18,48.1Z"/><path class="cls-2" d="M58.63,14.83V46.39h4.19c.5,0,.87.28.87.73s-.37.74-.87.74H43.4c-.5,0-.87-.27-.87-.74s.37-.73.87-.73h4.19V14.83H43.4a.77.77,0,0,1-.87-.74c0-.46.37-.73.87-.73H62.82c.5,0,.87.27.87.73a.77.77,0,0,1-.87.74Zm-9.2,31.56h7.36V14.83H49.43ZM75,14.83c-.18,8.88-4.55,18-10.4,21.44a9.38,9.38,0,0,1,4.93,3l3.31,3.64c1.61,1.75,3.22,3.36,5.52,3.36,1.06,0,1.42.27,1.42.78s-.36.78-1.47.78c-2.85,0-4.78-1.38-6.85-3.63l-3.41-3.77a7.48,7.48,0,0,0-6-2.9c-.46,0-1-.19-1-.79a.69.69,0,0,1,.55-.73C67.93,34,73,24,73.17,14.83H69a.77.77,0,0,1-.87-.74c0-.46.37-.73.87-.73H79.15c.51,0,.87.27.87.73s-.36.74-.87.74Z"/><path class="cls-2" d="M98.42,14.83V46.39h4.33c.5,0,.87.28.87.73s-.37.74-.87.74H83.06c-.51,0-.88-.27-.88-.74s.37-.73.88-.73h4.32V14.83H83.06c-.51,0-.88-.28-.88-.74s.37-.73.88-.73h19.69c.5,0,.87.27.87.73a.77.77,0,0,1-.87.74Zm-9.2,31.56h7.36V14.83H89.22Z"/><path class="cls-2" d="M123.35,14.83V46.39h12.93v-7a.88.88,0,1,1,1.75,0V47a.8.8,0,0,1-.88.87h-29c-.51,0-.88-.27-.88-.74s.37-.73.88-.73h4.18V14.83h-4.18c-.51,0-.88-.28-.88-.74s.37-.73.88-.73h19.41c.51,0,.87.27.87.73s-.36.74-.87.74Zm-9.2,31.56h7.36V14.83h-7.36Z"/><path class="cls-2" d="M157.39,14.83V46.39h12.93v-7a.88.88,0,1,1,1.75,0V47a.8.8,0,0,1-.88.87h-29c-.51,0-.88-.27-.88-.74s.37-.73.88-.73h4.18V14.83h-4.18c-.51,0-.88-.28-.88-.74s.37-.73.88-.73h19.41c.51,0,.87.27.87.73s-.36.74-.87.74Zm-9.2,31.56h7.36V14.83h-7.36Z"/><path class="cls-2" d="M178.23,38.57c0,5.1,4.69,8.6,9.89,8.6,4.74,0,6.26-3.45,6.26-6.53,0-2.76-2-4.51-5.11-5.57l-4.46-1.52c-4.56-1.56-7.46-4.51-7.46-9.24,0-7.09,6.63-11.83,14.59-11.83,3.54,0,6.49,1.34,8,3.13v-1.7a.83.83,0,0,1,1.66,0v8.47a.83.83,0,1,1-1.66,0V18.6c0-1.33-2.67-4.64-7.68-4.64-3.08,0-6,1.51-6,5.84,0,2.25,1.61,3.63,5,4.78l5.15,1.8c4.23,1.47,7.27,4.5,7.27,9.57,0,8.92-8.56,12.65-15.23,12.65-4.05,0-8.19-1.48-10.21-4.83v3.35a.83.83,0,1,1-1.66,0V36.64a.83.83,0,1,1,1.66,0Zm15.46,8c4.41-1.52,8.14-4.93,8.14-10.22,0-4.46-2.21-7-6.4-8.46L190.24,26c-3.64-1.29-5.8-3.13-5.8-6.12a6.62,6.62,0,0,1,2.44-5.38c-4.74,1.61-7.69,5.43-7.69,9.66,0,3.91,2.3,6.53,6.54,8l4.51,1.52c3.49,1.19,6,3.45,6,6.81A7.64,7.64,0,0,1,193.69,46.53Z"/></g></g></svg>