<svg xmlns="http://www.w3.org/2000/svg" viewBox="0 0 212.49 45.9"><defs><style>.cls-1{fill:#b27b00;}.cls-2{fill:#333;}</style></defs><g id="レイヤー_2" data-name="レイヤー 2"><g id="レイヤー_1-2" data-name="レイヤー 1"><path class="cls-1" d="M67.74,0c.66,0,1.14.36,1.14,1s-.48,1-1.14,1H63.12L51.78,44.28A2.19,2.19,0,0,1,49.5,45.9a2.24,2.24,0,0,1-2.34-1.62L36.6,6,25.26,44.28A2.23,2.23,0,0,1,23,45.9a2.48,2.48,0,0,1-2.34-1.62L5.7,1.92H1.14C.48,1.92,0,1.62,0,1S.48,0,1.14,0h24.3c.66,0,1.14.36,1.14,1s-.48,1-1.14,1H20.52l8.34,22.62,6.6-22c.24-.78.66-1.14,1.26-1.14s1,.42,1.14,1.14l11.7,41.34,11.22-42H52.92c-.66,0-1.14-.3-1.14-1s.48-1,1.14-1ZM8,1.92,22.92,44.46l4.86-16.32L18.18,1.92Z"/><path class="cls-2" d="M102.46,27.4c0,10.91-7.68,18-16.51,18-9.11,0-17.39-5.89-17.39-18,0-11.54,8.37-18,17.39-18S102.46,16.5,102.46,27.4ZM81.9,43.6c-1.93-2.07-2.76-6.67-2.76-16.2s.92-14.17,3-16.24c-5.84,1.61-11.77,7-11.77,16.24C70.4,37.06,76.15,42,81.9,43.6Zm18.72-16.2c0-9.7-6.44-16.56-14.35-16.56-3.45,0-5.2,3-5.2,16.56,0,14.36,1.75,16.57,5.2,16.57C94.18,44,100.62,37.11,100.62,27.4Z"/><path class="cls-2" d="M106.69,44.75c-.51,0-.87-.28-.87-.74s.36-.73.87-.73h4.19V11.72h-4.19c-.51,0-.87-.23-.87-.74s.36-.74.87-.74h17.25c9.16,0,15.14,4.19,15.14,12.52,0,6.53-3.91,10.72-9.71,12a9,9,0,0,1,2.95,2.43l2.25,2.86c1.47,1.84,2.9,3.12,5.38,3.12,1.06,0,1.43.28,1.43.79s-.37.78-1.47.78a7.67,7.67,0,0,1-6.72-3.41l-2.35-3a6.72,6.72,0,0,0-5.56-3c-.46,0-.92-.18-.92-.78s.46-.78,1-.78c7,0,11.87-3.68,11.87-11.13,0-7.64-5.06-11-13.29-11h-2V43.28h4.18c.51,0,.88.23.88.73s-.37.74-.88.74Zm6-1.47h7.36V11.72h-7.36Z"/><path class="cls-2" d="M160.56,11.72V43.28h4.19c.5,0,.87.27.87.73a.77.77,0,0,1-.87.74H145.33c-.51,0-.87-.28-.87-.74s.36-.73.87-.73h4.19V11.72h-4.19c-.51,0-.87-.28-.87-.74s.36-.74.87-.74h19.42a.75.75,0,1,1,0,1.48Zm-9.2,31.56h7.36V11.72h-7.36Zm25.58-31.56c-.19,8.88-4.56,18-10.4,21.43a9.43,9.43,0,0,1,4.92,3l3.31,3.64c1.61,1.74,3.22,3.35,5.52,3.35,1.06,0,1.43.28,1.43.79s-.37.78-1.47.78c-2.85,0-4.79-1.38-6.86-3.64L170,37.34a7.51,7.51,0,0,0-6-2.9c-.46,0-1-.18-1-.78a.69.69,0,0,1,.55-.74c6.3-2,11.36-12,11.55-21.2h-4.19c-.51,0-.87-.28-.87-.74s.36-.74.87-.74h10.17a.75.75,0,1,1,0,1.48Z"/><path class="cls-2" d="M187.05,35.46c0,5.1,4.7,8.6,9.89,8.6,4.74,0,6.26-3.45,6.26-6.53,0-2.76-2-4.51-5.11-5.57l-4.46-1.52c-4.55-1.56-7.45-4.51-7.45-9.25,0-7.08,6.62-11.82,14.58-11.82,3.54,0,6.49,1.33,8,3.13V10.8a.83.83,0,1,1,1.65,0v8.46a.83.83,0,1,1-1.65,0V15.49c0-1.34-2.67-4.65-7.69-4.65-3.08,0-6,1.52-6,5.85,0,2.25,1.61,3.63,5,4.78l5.15,1.79c4.24,1.48,7.27,4.51,7.27,9.57,0,8.93-8.55,12.65-15.22,12.65-4.05,0-8.19-1.47-10.22-4.83V44a.83.83,0,1,1-1.65,0V33.52a.83.83,0,1,1,1.65,0Zm15.46,7.95c4.42-1.51,8.14-4.92,8.14-10.21,0-4.46-2.21-7-6.39-8.46l-5.2-1.84c-3.64-1.29-5.8-3.13-5.8-6.12a6.63,6.63,0,0,1,2.44-5.39C191,13,188,16.82,188,21.05c0,3.92,2.3,6.54,6.53,8l4.51,1.52c3.5,1.2,6,3.45,6,6.81A7.61,7.61,0,0,1,202.51,43.41Z"/></g></g></svg>